<svg width="17" height="16" viewBox="0 0 17 16" fill="none" xmlns="http://www.w3.org/2000/svg">
<path fill-rule="evenodd" clip-rule="evenodd" d="M17 4.001C17 4.013 16.994 4.02301 16.993 4.03501C16.999 4.09521 16.999 4.15585 16.993 4.21605L15.9 9.10228C15.893 9.12069 15.8849 9.13872 15.876 9.15629C15.8434 9.391 15.7274 9.60613 15.5493 9.76241C15.3712 9.91869 15.1429 10.0057 14.906 10.0075H5C4.85278 10.006 4.70778 9.97138 4.57572 9.90628C4.44366 9.84118 4.3279 9.74725 4.237 9.63141C4.08148 9.47722 3.98188 9.27551 3.954 9.05826L3.048 2.0005H1C0.734784 2.0005 0.480429 1.89512 0.292892 1.70753C0.105356 1.51995 0 1.26553 0 1.00025C0 0.734967 0.105356 0.48055 0.292892 0.292966C0.480429 0.105383 0.734784 0 1 0L3.906 0C3.931 0 3.952 0.012003 3.976 0.0140035C4.08516 0.0173579 4.19299 0.0389966 4.295 0.0780195C4.4626 0.143326 4.60925 0.253069 4.71918 0.395462C4.82912 0.537855 4.8982 0.707516 4.919 0.886222L5.192 3.00075H16C16.0313 3.00548 16.0623 3.01183 16.093 3.01976C16.1389 3.01636 16.1851 3.01636 16.231 3.01976C16.2652 3.03316 16.2986 3.04852 16.331 3.06577C16.3693 3.08008 16.4067 3.09679 16.443 3.11578C16.5287 3.15661 16.6079 3.20987 16.678 3.27382C16.695 3.28982 16.71 3.30683 16.726 3.32383C16.7998 3.40215 16.8603 3.49203 16.905 3.5899C16.912 3.6049 16.917 3.62091 16.923 3.63691C16.9649 3.74307 16.9876 3.85586 16.99 3.96999C16.9939 3.98012 16.9973 3.99048 17 4.001ZM5.835 8.002H14.095L14.765 5.00125H5.449L5.835 8.002ZM6.504 11.0148C6.99538 11.0179 7.47483 11.1666 7.88187 11.4419C8.28891 11.7173 8.60532 12.1071 8.79118 12.5621C8.97704 13.0171 9.02402 13.5169 8.92622 13.9986C8.82842 14.4803 8.59021 14.9222 8.24163 15.2687C7.89305 15.6151 7.44971 15.8506 6.96753 15.9453C6.48535 16.04 5.98592 15.9898 5.53223 15.801C5.07854 15.6122 4.6909 15.2932 4.41822 14.8843C4.14554 14.4754 4.00001 13.9949 4 13.5034C4.00317 12.8423 4.26797 12.2093 4.73647 11.7429C5.20496 11.2766 5.83903 11.0147 6.5 11.0148H6.504ZM6.504 14.0785C6.61755 14.0777 6.72833 14.0433 6.82236 13.9797C6.91639 13.916 6.98946 13.8259 7.03237 13.7207C7.07528 13.6156 7.0861 13.5 7.06346 13.3887C7.04083 13.2774 6.98575 13.1753 6.90517 13.0953C6.8246 13.0153 6.72214 12.9609 6.61071 12.939C6.49928 12.9171 6.38388 12.9288 6.27905 12.9724C6.17421 13.0161 6.08464 13.0898 6.02164 13.1843C5.95863 13.2788 5.92501 13.3898 5.925 13.5034C5.92553 13.6558 5.98627 13.8017 6.09399 13.9095C6.20171 14.0172 6.34766 14.078 6.5 14.0785H6.504ZM13.504 10.9988C13.9985 10.9988 14.4818 11.1454 14.8929 11.4202C15.3041 11.695 15.6245 12.0855 15.8137 12.5424C16.0029 12.9994 16.0524 13.5021 15.956 13.9872C15.8595 14.4723 15.6214 14.9179 15.2718 15.2676C14.9221 15.6173 14.4767 15.8555 13.9917 15.952C13.5068 16.0484 13.0041 15.9989 12.5473 15.8097C12.0905 15.6204 11.7 15.2999 11.4253 14.8886C11.1506 14.4774 11.004 13.994 11.004 13.4994C11.0051 12.8376 11.2684 12.2031 11.7362 11.7352C12.2041 11.2672 12.8383 11.0038 13.5 11.0028L13.504 10.9988ZM13.504 14.0785C13.6175 14.0777 13.7283 14.0433 13.8224 13.9797C13.9164 13.916 13.9895 13.8259 14.0324 13.7207C14.0753 13.6156 14.0861 13.5 14.0635 13.3887C14.0408 13.2774 13.9857 13.1753 13.9052 13.0953C13.8246 13.0153 13.7221 12.9609 13.6107 12.939C13.4993 12.9171 13.3839 12.9288 13.279 12.9724C13.1742 13.0161 13.0846 13.0898 13.0216 13.1843C12.9586 13.2788 12.925 13.3898 12.925 13.5034C12.9255 13.6558 12.9863 13.8017 13.094 13.9095C13.2017 14.0172 13.3477 14.078 13.5 14.0785H13.504Z" fill="black"/>
</svg>
